<svg width="1172" height="586" viewBox="0 0 1172 586" fill="none" xmlns="http://www.w3.org/2000/svg">
<path d="M1171 9.53674e-06C1171 323.081 909.081 585 586 585C262.919 585 1.00002 323.081 1.00002 9.53674e-06" stroke="url(#paint0_linear_1_754)" stroke-opacity="0.1" stroke-miterlimit="10" stroke-dasharray="4 4"/>
<path d="M1024.75 7.15256e-06C1024.75 242.322 828.322 438.75 586 438.75C343.678 438.75 147.25 242.322 147.25 7.15256e-06" stroke="url(#paint1_linear_1_754)" stroke-opacity="0.1" stroke-miterlimit="10" stroke-dasharray="4 4"/>
<path d="M878.5 4.76837e-06C878.5 161.548 747.548 292.5 586 292.5C424.452 292.5 293.5 161.548 293.5 4.76837e-06" stroke="url(#paint2_linear_1_754)" stroke-opacity="0.1" stroke-miterlimit="10" stroke-dasharray="4 4"/>
<defs>
<linearGradient id="paint0_linear_1_754" x1="586" y1="585" x2="586" y2="0" gradientUnits="userSpaceOnUse">
<stop stop-color="white"/>
<stop offset="0.619792" stop-color="white" stop-opacity="0"/>
</linearGradient>
<linearGradient id="paint1_linear_1_754" x1="586" y1="438.75" x2="586" y2="0" gradientUnits="userSpaceOnUse">
<stop stop-color="white"/>
<stop offset="0.619792" stop-color="white" stop-opacity="0"/>
</linearGradient>
<linearGradient id="paint2_linear_1_754" x1="586" y1="292.5" x2="586" y2="0" gradientUnits="userSpaceOnUse">
<stop stop-color="white"/>
<stop offset="0.619792" stop-color="white" stop-opacity="0"/>
</linearGradient>
</defs>
</svg>
