<svg width="27" height="20" viewBox="0 0 27 20" fill="none" xmlns="http://www.w3.org/2000/svg">
<path d="M6.09115 7.97595C5.79322 7.97595 5.50732 8.02137 5.22275 8.06279C5.31493 7.75284 5.40979 7.43754 5.56209 7.15431C5.7144 6.74282 5.95221 6.38611 6.18868 6.02672C6.38641 5.63794 6.73511 5.37475 6.99162 5.04208C7.26016 4.71877 7.62622 4.50367 7.91613 4.23514C8.2007 3.95457 8.57345 3.81429 8.87004 3.61657C9.18 3.43888 9.44987 3.24248 9.73845 3.14896L10.4586 2.85237L11.0918 2.58918L10.4439 0L9.64626 0.192384C9.39108 0.256512 9.0798 0.331329 8.72575 0.420841C8.3637 0.487641 7.97759 0.670674 7.5474 0.837675C7.12255 1.02739 6.6309 1.15564 6.17398 1.46025C5.7144 1.7515 5.184 1.99466 4.7164 2.38477C4.2635 2.78691 3.71707 3.1356 3.3136 3.64729C2.87271 4.12558 2.43718 4.62792 2.09917 5.19973C1.70772 5.74482 1.44185 6.34335 1.16129 6.9352C0.907451 7.52705 0.703042 8.13226 0.536042 8.72011C0.219409 9.89846 0.0777919 11.018 0.0230157 11.976C-0.0224085 12.9352 0.00431163 13.7328 0.0604238 14.31C0.0804639 14.5825 0.117872 14.847 0.144592 15.0301L0.177992 15.2545L0.212728 15.2465C0.450352 16.3565 0.997369 17.3765 1.7905 18.1886C2.58363 19.0007 3.59047 19.5717 4.69454 19.8354C5.79862 20.0992 6.95481 20.045 8.02937 19.6791C9.10393 19.3133 10.0529 18.6506 10.7666 17.7679C11.4803 16.8852 11.9296 15.8185 12.0623 14.6911C12.1951 13.5638 12.006 12.4219 11.5168 11.3975C11.0277 10.3731 10.2586 9.50817 9.29844 8.90267C8.33827 8.29717 7.22629 7.97588 6.09115 7.97595ZM20.7872 7.97595C20.4893 7.97595 20.2034 8.02137 19.9188 8.06279C20.011 7.75284 20.1058 7.43754 20.2582 7.15431C20.4105 6.74282 20.6483 6.38611 20.8847 6.02672C21.0825 5.63794 21.4312 5.37475 21.6877 5.04208C21.9562 4.71877 22.3223 4.50367 22.6122 4.23514C22.8968 3.95457 23.2695 3.81429 23.5661 3.61657C23.8761 3.43888 24.1459 3.24248 24.4345 3.14896L25.1546 2.85237L25.7879 2.58918L25.1399 0L24.3423 0.192384C24.0871 0.256512 23.7759 0.331329 23.4218 0.420841C23.0598 0.487641 22.6736 0.670674 22.2435 0.837675C21.8199 1.02872 21.327 1.15564 20.87 1.46159C20.4105 1.75284 19.8801 1.99599 19.4125 2.38611C18.9596 2.78824 18.4131 3.13694 18.0097 3.64729C17.5688 4.12558 17.1332 4.62792 16.7952 5.19973C16.4038 5.74482 16.1379 6.34335 15.8573 6.9352C15.6035 7.52705 15.3991 8.13226 15.2321 8.72011C14.9155 9.89846 14.7738 11.018 14.7191 11.976C14.6736 12.9352 14.7004 13.7328 14.7565 14.31C14.7765 14.5825 14.8139 14.847 14.8406 15.0301L14.8741 15.2545L14.9088 15.2465C15.1464 16.3565 15.6934 17.3765 16.4866 18.1886C17.2797 19.0007 18.2865 19.5717 19.3906 19.8354C20.4947 20.0992 21.6509 20.045 22.7254 19.6791C23.8 19.3133 24.749 18.6506 25.4627 17.7679C26.1764 16.8852 26.6256 15.8185 26.7584 14.6911C26.8911 13.5638 26.702 12.4219 26.2129 11.3975C25.7238 10.3731 24.9547 9.50817 23.9945 8.90267C23.0343 8.29717 21.9224 7.97588 20.7872 7.97595Z" fill="#06D0E7"/>
</svg>
