<svg width="21" height="22" viewBox="0 0 21 22" fill="none" xmlns="http://www.w3.org/2000/svg">
<path d="M15.4219 4.125C16.1467 4.125 16.7344 3.50939 16.7344 2.75C16.7344 1.99061 16.1467 1.375 15.4219 1.375C14.697 1.375 14.1094 1.99061 14.1094 2.75C14.1094 3.50939 14.697 4.125 15.4219 4.125Z" stroke="white" stroke-width="2" stroke-linecap="round" stroke-linejoin="round"/>
<path d="M13.207 15.125C12.3702 15.5779 11.4419 15.8142 10.5 15.8142C9.55807 15.8142 8.62983 15.5779 7.79297 15.125" stroke="white" stroke-width="2" stroke-linecap="round" stroke-linejoin="round"/>
<path d="M10.5 6.1875L11.1562 2.0625L14.1258 2.54375" stroke="white" stroke-width="2" stroke-linecap="round" stroke-linejoin="round"/>
<path d="M4.87266 7.72578C6.37383 6.76328 8.34258 6.1875 10.5 6.1875C12.6574 6.1875 14.6262 6.76328 16.1273 7.72578C16.2995 7.47826 16.5221 7.27401 16.7791 7.12787C17.036 6.98174 17.3208 6.89738 17.6127 6.88092C17.9046 6.86446 18.1964 6.91633 18.4668 7.03274C18.7372 7.14915 18.9794 7.32719 19.176 7.55393C19.3725 7.78067 19.5184 8.05041 19.603 8.34358C19.6876 8.63674 19.7088 8.94597 19.6651 9.2488C19.6214 9.55162 19.5138 9.84045 19.3503 10.0943C19.1867 10.3482 18.9713 10.5607 18.7195 10.7164V10.7164C18.9258 11.2426 19.0317 11.8061 19.0313 12.375C19.0313 15.7953 15.2086 18.5625 10.5 18.5625C5.79141 18.5625 1.96875 15.7953 1.96875 12.375C1.96831 11.8061 2.0742 11.2426 2.28047 10.7164V10.7164C2.02874 10.5607 1.81327 10.3482 1.64971 10.0943C1.48616 9.84045 1.37862 9.55162 1.33492 9.2488C1.29121 8.94597 1.31243 8.63674 1.39703 8.34358C1.48163 8.05041 1.62749 7.78067 1.82403 7.55393C2.02056 7.32719 2.26282 7.14915 2.53323 7.03274C2.80364 6.91633 3.0954 6.86446 3.38732 6.88092C3.67925 6.89738 3.96401 6.98174 4.22093 7.12787C4.47786 7.27401 4.70049 7.47826 4.87266 7.72578V7.72578Z" stroke="white" stroke-width="2" stroke-linecap="round" stroke-linejoin="round"/>
<path d="M7.21875 12.5469C7.85301 12.5469 8.36719 12.0082 8.36719 11.3438C8.36719 10.6793 7.85301 10.1406 7.21875 10.1406C6.58449 10.1406 6.07031 10.6793 6.07031 11.3438C6.07031 12.0082 6.58449 12.5469 7.21875 12.5469Z" fill="white"/>
<path d="M13.7812 12.5469C14.4155 12.5469 14.9297 12.0082 14.9297 11.3438C14.9297 10.6793 14.4155 10.1406 13.7812 10.1406C13.147 10.1406 12.6328 10.6793 12.6328 11.3438C12.6328 12.0082 13.147 12.5469 13.7812 12.5469Z" fill="white"/>
</svg>
