<svg width="26" height="30" viewBox="0 0 26 30" fill="none" xmlns="http://www.w3.org/2000/svg">
<g clip-path="url(#clip0_864_516)">
<path d="M12.9643 1.40425L13.6613 0.510632C13.2431 0.191484 12.6855 0.191484 12.3369 0.510632L12.9643 1.40425ZM24.5353 4.85106H25.6506C25.6506 4.21276 25.1627 3.76595 24.5353 3.70212V4.85106ZM12.9643 28.5957L12.3369 29.4894C12.6855 29.7447 13.1734 29.7447 13.5916 29.4894L12.9643 28.5957ZM1.46294 4.85106V3.70212C0.835592 3.70212 0.347656 4.21276 0.347656 4.78723L1.46294 4.85106ZM12.3369 2.29787C17.3557 6.19148 23.0715 5.93616 24.5353 5.93616V3.70212C23.0018 3.70212 17.983 3.89361 13.6613 0.510632L12.3369 2.29787ZM23.42 4.85106C23.3503 10.0213 23.1412 13.6596 22.723 16.3404C22.3048 19.0213 21.7471 20.617 20.9804 21.7021C20.2136 22.8511 19.2377 23.5532 17.8436 24.383C16.3798 25.2766 14.6372 26.1702 12.4066 27.6383L13.6613 29.4894C15.7525 28.0851 17.5648 27.1915 19.0286 26.2979C20.5621 25.4042 21.8865 24.383 22.8624 22.9149C23.8383 21.383 24.5353 19.4681 24.9536 16.6596C25.3718 13.8511 25.5809 10.0851 25.7203 4.91489L23.42 4.85106ZM13.5916 27.6383C11.3611 26.1702 9.54873 25.2128 8.15463 24.383C6.76052 23.5532 5.78465 22.8511 5.0179 21.7021C4.25114 20.5532 3.6935 19.0213 3.27527 16.3404C2.85704 13.6596 2.64792 10.0213 2.57822 4.85106H0.347656C0.417361 10.0851 0.696182 13.8511 1.11441 16.6596C1.53264 19.4681 2.22969 21.4468 3.20556 22.9149C4.18144 24.383 5.50583 25.4042 7.03935 26.2979C8.50315 27.1915 10.3155 28.0851 12.4066 29.4894L13.5916 27.6383ZM1.46294 5.93616C2.92674 5.93616 8.64256 6.19148 13.6613 2.29787L12.3369 0.574462C8.01522 3.95744 2.99645 3.76595 1.46294 3.76595V5.93616Z" fill="#0B65C6" stroke="#0B65C6" stroke-miterlimit="10"/>
</g>
<defs>
<clipPath id="clip0_864_516">
<rect width="26" height="30" fill="white"/>
</clipPath>
</defs>
</svg>
