<svg width="42" height="42" viewBox="0 0 42 42" fill="none" xmlns="http://www.w3.org/2000/svg">
<path d="M21 41C32.0457 41 41 32.0457 41 21C41 9.9543 32.0457 1 21 1C9.9543 1 1 9.9543 1 21C1 32.0457 9.9543 41 21 41Z" stroke="#06D0E7" stroke-width="2" stroke-miterlimit="10" stroke-linecap="round" stroke-linejoin="round"/>
<path d="M20.9999 26.7598C19.1799 26.7598 17.7 25.2797 17.7 23.4597V18.5198C17.7 16.6998 19.1799 15.2197 20.9999 15.2197C22.8199 15.2197 24.2999 16.6998 24.2999 18.5198V23.4597C24.2999 25.2797 22.8199 26.7598 20.9999 26.7598Z" stroke="#06D0E7" stroke-width="2" stroke-linecap="round"/>
<path d="M30.96 23.9397C30.56 29.0997 26.24 33.1398 21 33.1398C15.48 33.1398 11 28.6598 11 23.1398V18.8597C11 13.3397 15.48 8.85974 21 8.85974C26.18 8.85974 30.44 12.7997 30.94 17.8397" stroke="#06D0E7" stroke-width="2" stroke-linecap="round"/>
</svg>
