<svg width="42" height="42" viewBox="0 0 42 42" fill="none" xmlns="http://www.w3.org/2000/svg">
<path d="M16 24.5C16 26.44 17.5 28 19.34 28H23.1C24.7 28 26 26.64 26 24.94C26 23.12 25.2 22.46 24.02 22.04L18 19.94C16.82 19.52 16.02 18.88 16.02 17.04C16.02 15.36 17.32 13.98 18.92 13.98H22.68C24.52 13.98 26.02 15.54 26.02 17.48" stroke="#06D0E7" stroke-width="2" stroke-linecap="round" stroke-linejoin="round"/>
<path d="M21 12V30" stroke="#06D0E7" stroke-width="2" stroke-linecap="round" stroke-linejoin="round"/>
<path d="M41 21C41 32.04 32.04 41 21 41C9.96 41 1 32.04 1 21C1 9.96 9.96 1 21 1" stroke="#06D0E7" stroke-width="2" stroke-linecap="round" stroke-linejoin="round"/>
<path d="M41 9V1H33" stroke="#06D0E7" stroke-width="2" stroke-linecap="round" stroke-linejoin="round"/>
<path d="M31 11L41 1" stroke="#06D0E7" stroke-width="2" stroke-linecap="round" stroke-linejoin="round"/>
</svg>
