<svg width="38" height="42" viewBox="0 0 38 42" fill="none" xmlns="http://www.w3.org/2000/svg">
<path d="M36.6579 19.2341C36.6579 29.019 29.5543 38.1836 19.8495 40.8649C19.1891 41.045 18.4687 41.045 17.8084 40.8649C8.10355 38.1836 1 29.019 1 19.2341V10.4497C1 8.80884 2.24065 6.94792 3.78142 6.32761L14.927 1.76538C17.4282 0.744872 20.2496 0.744872 22.7509 1.76538L33.8965 6.32761C35.4172 6.94792 36.6779 8.80884 36.6779 10.4497L36.6579 19.2341Z" stroke="#00E37C" stroke-width="2" stroke-linecap="round" stroke-linejoin="round"/>
<path d="M18.829 21.9955C21.0392 21.9955 22.831 20.2037 22.831 17.9935C22.831 15.7832 21.0392 13.9915 18.829 13.9915C16.6188 13.9915 14.827 15.7832 14.827 17.9935C14.827 20.2037 16.6188 21.9955 18.829 21.9955Z" stroke="#00E37C" stroke-width="2" stroke-miterlimit="10" stroke-linecap="round" stroke-linejoin="round"/>
<path d="M18.829 21.9954V27.9984" stroke="#00E37C" stroke-width="2" stroke-miterlimit="10" stroke-linecap="round" stroke-linejoin="round"/>
</svg>
