<svg width="42" height="42" viewBox="0 0 42 42" fill="none" xmlns="http://www.w3.org/2000/svg">
<path d="M1 15V10C1 5.02 5.02 1 10 1H15" stroke="#00E37C" stroke-width="2" stroke-linecap="round" stroke-linejoin="round"/>
<path d="M27 1H32C36.98 1 41 5.02 41 10V15" stroke="#00E37C" stroke-width="2" stroke-linecap="round" stroke-linejoin="round"/>
<path d="M41 29V32C41 36.98 36.98 41 32 41H29" stroke="#00E37C" stroke-width="2" stroke-linecap="round" stroke-linejoin="round"/>
<path d="M15 41H10C5.02 41 1 36.98 1 32V27" stroke="#00E37C" stroke-width="2" stroke-linecap="round" stroke-linejoin="round"/>
<path d="M14 19C16.7614 19 19 16.7614 19 14C19 11.2386 16.7614 9 14 9C11.2386 9 9 11.2386 9 14C9 16.7614 11.2386 19 14 19Z" stroke="#00E37C" stroke-width="2" stroke-linecap="round" stroke-linejoin="round"/>
<path d="M12 33C13.6569 33 15 31.6569 15 30C15 28.3431 13.6569 27 12 27C10.3431 27 9 28.3431 9 30C9 31.6569 10.3431 33 12 33Z" stroke="#00E37C" stroke-width="2" stroke-linecap="round" stroke-linejoin="round"/>
<path d="M30 15C31.6569 15 33 13.6569 33 12C33 10.3431 31.6569 9 30 9C28.3431 9 27 10.3431 27 12C27 13.6569 28.3431 15 30 15Z" stroke="#00E37C" stroke-width="2" stroke-linecap="round" stroke-linejoin="round"/>
<path d="M28 33C30.7614 33 33 30.7614 33 28C33 25.2386 30.7614 23 28 23C25.2386 23 23 25.2386 23 28C23 30.7614 25.2386 33 28 33Z" stroke="#00E37C" stroke-width="2" stroke-linecap="round" stroke-linejoin="round"/>
</svg>
