<svg width="34" height="34" viewBox="0 0 34 34" fill="none" xmlns="http://www.w3.org/2000/svg">
<circle cx="17" cy="17" r="17" fill="white"/>
<path fill-rule="evenodd" clip-rule="evenodd" d="M4.77368 15.6995L9.99948 3.27759L24.8439 4.98779L27.8835 14.1559L26.3637 26.8379C24.1792 29.1822 22.7852 30.3535 22.1834 30.3535C21.5816 30.3535 17.0222 29.5222 8.50348 27.8596L4.77538 18.6439L4.77368 15.6995Z" fill="#F9F9F9"/>
<path fill-rule="evenodd" clip-rule="evenodd" d="M24.123 26.8498H20.5037V20.6193C20.5037 19.6214 19.6962 18.8105 18.6983 18.8105H18.6966H13.4946C11.4971 18.8105 9.877 17.1904 9.877 15.1929V7.15188H13.4946V13.3841C13.4946 14.382 14.3038 15.1929 15.3017 15.1929H20.5037C22.5012 15.1946 24.1196 16.813 24.1213 18.8105L24.123 26.8498ZM13.6204 26.8498H10.0011V20.774C11.9986 20.774 13.6187 22.3924 13.6187 24.3916L13.6204 26.8498ZM20.3796 7.15022H23.9972V13.2294C21.998 13.2294 20.3796 11.6093 20.3796 9.61182V7.15022ZM17 0C7.6109 0 0 7.6126 0 17C0 26.3874 7.6109 34 17 34C26.3891 34 34 26.3891 34 17C34 7.6109 26.3891 0 17 0Z" fill="#005FFA"/>
</svg>
