<svg width="294" height="54" viewBox="0 0 294 54" fill="none" xmlns="http://www.w3.org/2000/svg">
<path d="M0 35C0 32.7909 1.79086 31 4 31C6.20914 31 8 32.7909 8 35V54H0V35Z" fill="white" fill-opacity="0.05"/>
<path d="M13 40C13 37.7909 14.7909 36 17 36C19.2091 36 21 37.7909 21 40V54H13V40Z" fill="white" fill-opacity="0.05"/>
<path d="M26 45C26 42.7909 27.7909 41 30 41C32.2091 41 34 42.7909 34 45V54H26V45Z" fill="white" fill-opacity="0.05"/>
<path d="M39 35C39 32.7909 40.7909 31 43 31C45.2091 31 47 32.7909 47 35V54H39V35Z" fill="white" fill-opacity="0.05"/>
<path d="M52 25C52 22.7909 53.7909 21 56 21C58.2091 21 60 22.7909 60 25V54H52V25Z" fill="white" fill-opacity="0.05"/>
<path d="M65 4C65 1.79086 66.7909 0 69 0C71.2091 0 73 1.79086 73 4V54H65V4Z" fill="white" fill-opacity="0.05"/>
<path d="M78 11C78 8.79086 79.7909 7 82 7C84.2091 7 86 8.79086 86 11V54H78V11Z" fill="white" fill-opacity="0.05"/>
<path d="M91 30C91 27.7909 92.7909 26 95 26C97.2091 26 99 27.7909 99 30V54H91V30Z" fill="white" fill-opacity="0.05"/>
<path d="M104 17C104 14.7909 105.791 13 108 13C110.209 13 112 14.7909 112 17V54H104V17Z" fill="white" fill-opacity="0.05"/>
<path d="M117 4C117 1.79086 118.791 0 121 0C123.209 0 125 1.79086 125 4V54H117V4Z" fill="white" fill-opacity="0.05"/>
<path d="M130 21C130 18.7909 131.791 17 134 17C136.209 17 138 18.7909 138 21V54H130V21Z" fill="white" fill-opacity="0.05"/>
<path d="M143 14C143 11.7909 144.791 10 147 10C149.209 10 151 11.7909 151 14V54H143V14Z" fill="white" fill-opacity="0.05"/>
<path d="M156 6C156 3.79086 157.791 2 160 2C162.209 2 164 3.79086 164 6V54H156V6Z" fill="white" fill-opacity="0.05"/>
<path d="M169 30C169 27.7909 170.791 26 173 26C175.209 26 177 27.7909 177 30V54H169V30Z" fill="white" fill-opacity="0.05"/>
<path d="M182 35C182 32.7909 183.791 31 186 31C188.209 31 190 32.7909 190 35V54H182V35Z" fill="white" fill-opacity="0.05"/>
<path d="M195 25C195 22.7909 196.791 21 199 21C201.209 21 203 22.7909 203 25V54H195V25Z" fill="white" fill-opacity="0.05"/>
<path d="M208 33C208 30.7909 209.791 29 212 29C214.209 29 216 30.7909 216 33V54H208V33Z" fill="white" fill-opacity="0.05"/>
<path d="M221 40C221 37.7909 222.791 36 225 36C227.209 36 229 37.7909 229 40V54H221V40Z" fill="white" fill-opacity="0.05"/>
<path d="M234 35C234 32.7909 235.791 31 238 31C240.209 31 242 32.7909 242 35V54H234V35Z" fill="white" fill-opacity="0.05"/>
<path d="M247 25C247 22.7909 248.791 21 251 21C253.209 21 255 22.7909 255 25V54H247V25Z" fill="white" fill-opacity="0.05"/>
<path d="M260 40C260 37.7909 261.791 36 264 36C266.209 36 268 37.7909 268 40V54H260V40Z" fill="white" fill-opacity="0.05"/>
<path d="M273 28C273 25.7909 274.791 24 277 24C279.209 24 281 25.7909 281 28V54H273V28Z" fill="white" fill-opacity="0.05"/>
<path d="M286 25C286 22.7909 287.791 21 290 21C292.209 21 294 22.7909 294 25V54H286V25Z" fill="white" fill-opacity="0.05"/>
</svg>
