<svg width="294" height="60" viewBox="0 0 294 60" fill="none" xmlns="http://www.w3.org/2000/svg">
<path d="M0 23.6155C0 21.4063 1.79086 19.6155 4 19.6155C6.20914 19.6155 8 21.4063 8 23.6155V60.0001H0V23.6155Z" fill="white" fill-opacity="0.05"/>
<path d="M13 34C13 31.7909 14.7909 30 17 30C19.2091 30 21 31.7909 21 34V60H13V34Z" fill="white" fill-opacity="0.05"/>
<path d="M26 34C26 31.7909 27.7909 30 30 30C32.2091 30 34 31.7909 34 34V60H26V34Z" fill="white" fill-opacity="0.05"/>
<path d="M39 37.4614C39 35.2523 40.7909 33.4614 43 33.4614C45.2091 33.4614 47 35.2523 47 37.4614V59.9999H39V37.4614Z" fill="white" fill-opacity="0.05"/>
<path d="M52 25.9231C52 23.714 53.7909 21.9231 56 21.9231C58.2091 21.9231 60 23.714 60 25.9231V60H52V25.9231Z" fill="white" fill-opacity="0.05"/>
<path d="M65 43.2307C65 41.0216 66.7909 39.2307 69 39.2307C71.2091 39.2307 73 41.0216 73 43.2307V59.9999H65V43.2307Z" fill="white" fill-opacity="0.05"/>
<path d="M78 25.9231C78 23.714 79.7909 21.9231 82 21.9231C84.2091 21.9231 86 23.714 86 25.9231V60H78V25.9231Z" fill="white" fill-opacity="0.05"/>
<path d="M91 16.6924C91 14.4832 92.7909 12.6924 95 12.6924C97.2091 12.6924 99 14.4832 99 16.6924V60.0001H91V16.6924Z" fill="white" fill-opacity="0.05"/>
<path d="M104 4C104 1.79086 105.791 0 108 0C110.209 0 112 1.79086 112 4V60H104V4Z" fill="white" fill-opacity="0.05"/>
<path d="M117 29.3845C117 27.1754 118.791 25.3845 121 25.3845C123.209 25.3845 125 27.1754 125 29.3845V59.9999H117V29.3845Z" fill="white" fill-opacity="0.05"/>
<path d="M130 35.1538C130 32.9447 131.791 31.1538 134 31.1538C136.209 31.1538 138 32.9447 138 35.1538V60H130V35.1538Z" fill="white" fill-opacity="0.05"/>
<path d="M143 52.4614C143 50.2523 144.791 48.4614 147 48.4614C149.209 48.4614 151 50.2523 151 52.4614V59.9999H143V52.4614Z" fill="white" fill-opacity="0.05"/>
<path d="M156 49C156 46.7909 157.791 45 160 45C162.209 45 164 46.7909 164 49V60H156V49Z" fill="white" fill-opacity="0.05"/>
<path d="M169 31.6924C169 29.4832 170.791 27.6924 173 27.6924C175.209 27.6924 177 29.4832 177 31.6924V60.0001H169V31.6924Z" fill="white" fill-opacity="0.05"/>
<path d="M182 16.6924C182 14.4832 183.791 12.6924 186 12.6924C188.209 12.6924 190 14.4832 190 16.6924V60.0001H182V16.6924Z" fill="white" fill-opacity="0.05"/>
<path d="M195 25.9231C195 23.714 196.791 21.9231 199 21.9231C201.209 21.9231 203 23.714 203 25.9231V60H195V25.9231Z" fill="white" fill-opacity="0.05"/>
<path d="M208 35.1538C208 32.9447 209.791 31.1538 212 31.1538C214.209 31.1538 216 32.9447 216 35.1538V60H208V35.1538Z" fill="white" fill-opacity="0.05"/>
<path d="M221 13.2307C221 11.0216 222.791 9.23071 225 9.23071C227.209 9.23071 229 11.0216 229 13.2307V59.9999H221V13.2307Z" fill="white" fill-opacity="0.05"/>
<path d="M234 37.4614C234 35.2523 235.791 33.4614 238 33.4614C240.209 33.4614 242 35.2523 242 37.4614V59.9999H234V37.4614Z" fill="white" fill-opacity="0.05"/>
<path d="M247 25.9231C247 23.714 248.791 21.9231 251 21.9231C253.209 21.9231 255 23.714 255 25.9231V60H247V25.9231Z" fill="white" fill-opacity="0.05"/>
<path d="M260 13.2307C260 11.0216 261.791 9.23071 264 9.23071C266.209 9.23071 268 11.0216 268 13.2307V59.9999H260V13.2307Z" fill="white" fill-opacity="0.05"/>
<path d="M273 29.3845C273 27.1754 274.791 25.3845 277 25.3845C279.209 25.3845 281 27.1754 281 29.3845V59.9999H273V29.3845Z" fill="white" fill-opacity="0.05"/>
<path d="M286 43.2307C286 41.0216 287.791 39.2307 290 39.2307C292.209 39.2307 294 41.0216 294 43.2307V59.9999H286V43.2307Z" fill="white" fill-opacity="0.05"/>
</svg>
