<svg width="20" height="15" viewBox="0 0 20 15" fill="none" xmlns="http://www.w3.org/2000/svg">
<path d="M5.1138 8.53506C5.03863 9.81309 6.01594 10.8656 7.29397 10.9408C8.572 10.8656 9.54932 9.73791 9.47414 8.45988C9.54932 7.18185 8.572 6.05418 7.29397 5.979C6.01594 6.12936 5.03863 7.25703 5.1138 8.53506ZM7.8954 8.53506C7.8954 9.06131 7.59468 9.51238 7.21879 9.51238C6.8429 9.51238 6.54219 9.06131 6.54219 8.53506C6.54219 8.00882 6.91808 7.55775 7.29397 7.55775C7.66986 7.55775 7.8954 8.00882 7.8954 8.53506Z" fill="white" fill-opacity="0.8"/>
<path d="M12.1806 6.05396C10.9025 6.12913 9.92522 7.25681 10.0004 8.53484C9.92522 9.81287 10.9025 10.8654 12.1806 11.0157C13.4586 10.9405 14.4359 9.81287 14.3607 8.53484C14.4359 7.25681 13.4586 6.12913 12.1806 6.05396ZM12.1806 9.43697C11.8047 9.43697 11.504 8.9859 11.504 8.45966C11.504 7.93341 11.8047 7.48234 12.1806 7.48234C12.5565 7.48234 12.8572 7.93341 12.8572 8.45966C12.8572 8.9859 12.5565 9.43697 12.1806 9.43697Z" fill="white" fill-opacity="0.8"/>
<path d="M17.7421 3.34738C17.6669 3.2722 17.6669 3.19702 17.6669 3.19702C16.3888 1.61828 14.5846 0.49061 12.5548 0.0395408C12.1789 -0.110816 11.7278 0.189897 11.6526 0.565788C11.5774 0.941679 11.803 1.39275 12.1789 1.46793C12.1789 1.46793 12.1789 1.46793 12.254 1.46793C13.908 1.84382 15.4115 2.74596 16.464 4.02399C17.4413 6.35451 18.0428 8.83539 18.0428 11.3914C16.9903 12.3688 15.7122 13.0454 14.2839 13.2709V12.9702C14.2839 12.9702 14.2839 12.9702 14.2839 12.895C15.186 12.5191 16.0881 12.0681 16.8399 11.3914C17.1406 11.1659 17.2158 10.6397 16.9903 10.339C16.7647 10.0382 16.2385 9.96306 15.9378 10.1886C14.2087 11.5418 12.0285 12.2184 9.77316 12.1432C7.593 12.2184 5.41283 11.5418 3.68373 10.1886C3.38302 9.96306 2.85677 9.96306 2.63124 10.339C2.4057 10.7148 2.4057 11.1659 2.78159 11.3914C3.53338 11.9929 4.43551 12.5191 5.33765 12.895V13.2709C3.90927 13.0454 2.63124 12.3688 1.57874 11.3914C1.57874 8.83539 2.10499 6.35451 3.15748 4.02399C4.1348 2.74596 5.63836 1.919 7.29228 1.5431C7.66818 1.39275 7.89371 1.01686 7.81853 0.640966C7.74335 0.189897 7.36746 -0.0356374 6.91639 0.0395408C4.88658 0.49061 3.08231 1.5431 1.80428 3.19702V3.2722V3.34738C0.300713 6.35451 0.150356 9.06092 0 11.6922C0 11.9177 0.0751782 12.1432 0.225535 12.2936C1.7291 13.8723 3.75891 14.7745 5.93908 15C6.16461 15 6.31497 14.9248 6.46532 14.7745C6.61568 14.6241 6.69086 14.4738 6.69086 14.2482V13.4964C8.64549 13.9475 10.7505 13.9475 12.7051 13.4964V14.2482C12.7051 14.4738 12.7803 14.6241 12.9306 14.7745C13.081 14.9248 13.2314 15 13.4569 15C15.6371 14.8496 17.7421 13.9475 19.2456 12.3688C19.396 12.2184 19.4712 11.9929 19.4712 11.7673C19.3208 9.06092 19.1704 6.35451 17.7421 3.34738Z" fill="white" fill-opacity="0.8"/>
<path d="M15.3354 4.2496C15.561 3.87371 15.4106 3.42264 15.0347 3.27229C13.3808 2.5205 11.5765 2.06944 9.69708 2.14461C7.8928 2.06944 6.01334 2.5205 4.35942 3.27229C4.05871 3.42264 3.90835 3.87371 4.05871 4.2496C4.28425 4.62549 4.73531 4.70067 5.11121 4.55032C6.53959 3.87371 8.11833 3.573 9.69708 3.573C11.2758 3.573 12.9297 3.87371 14.3581 4.55032C14.4333 4.62549 14.5837 4.62549 14.734 4.62549C14.9595 4.62549 15.1851 4.47514 15.3354 4.2496Z" fill="white" fill-opacity="0.8"/>
</svg>
