<svg width="22" height="16" viewBox="0 0 22 16" fill="none" xmlns="http://www.w3.org/2000/svg">
<path d="M16.54 6.79999C16.12 7.20999 15.88 7.79999 15.94 8.42999C16.03 9.50999 17.02 10.3 18.1 10.3H20V11.49C20 13.56 18.31 15.25 16.24 15.25H4.76C2.69 15.25 1 13.56 1 11.49V4.76001C1 2.69001 2.69 1 4.76 1H16.24C18.31 1 20 2.69001 20 4.76001V6.20001H17.98C17.42 6.20001 16.91 6.41999 16.54 6.79999Z" stroke="#00E37C" stroke-width="1.5" stroke-linecap="round" stroke-linejoin="round"/>
<path d="M21.0588 7.22015V9.28021C21.0588 9.83021 20.6188 10.2802 20.0588 10.3002H18.0988C17.0188 10.3002 16.0288 9.51018 15.9388 8.43018C15.8788 7.80018 16.1188 7.21017 16.5388 6.80017C16.9088 6.42017 17.4188 6.2002 17.9788 6.2002H20.0588C20.6188 6.2202 21.0588 6.67015 21.0588 7.22015Z" stroke="#00E37C" stroke-width="1.5" stroke-linecap="round" stroke-linejoin="round"/>
<path d="M5.5 5.25H12.5" stroke="#00E37C" stroke-width="1.5" stroke-linecap="round" stroke-linejoin="round"/>
</svg>
