<svg width="18" height="20" viewBox="0 0 18 20" fill="none" xmlns="http://www.w3.org/2000/svg">
<path d="M14.3185 6.41571C15.7885 6.41571 16.9803 5.21041 16.9803 3.7236C16.9803 2.23679 15.7885 1.03149 14.3185 1.03149C12.8484 1.03149 11.6567 2.23679 11.6567 3.7236C11.6567 5.21041 12.8484 6.41571 14.3185 6.41571Z" stroke="white" stroke-opacity="0.5" stroke-width="2" stroke-linecap="round" stroke-linejoin="round"/>
<path d="M3.68178 12.687C5.15182 12.687 6.34353 11.4817 6.34353 9.99484C6.34353 8.50803 5.15182 7.30273 3.68178 7.30273C2.21173 7.30273 1.02002 8.50803 1.02002 9.99484C1.02002 11.4817 2.21173 12.687 3.68178 12.687Z" stroke="white" stroke-opacity="0.5" stroke-width="2" stroke-linecap="round" stroke-linejoin="round"/>
<path d="M14.3185 18.9684C15.7885 18.9684 16.9803 17.7631 16.9803 16.2763C16.9803 14.7895 15.7885 13.5842 14.3185 13.5842C12.8484 13.5842 11.6567 14.7895 11.6567 16.2763C11.6567 17.7631 12.8484 18.9684 14.3185 18.9684Z" stroke="white" stroke-opacity="0.5" stroke-width="2" stroke-linecap="round" stroke-linejoin="round"/>
<path d="M5.97607 11.3564L12.0339 14.9253" stroke="white" stroke-opacity="0.5" stroke-width="2" stroke-linecap="round" stroke-linejoin="round"/>
<path d="M12.0237 5.07471L5.97607 8.64356" stroke="white" stroke-opacity="0.5" stroke-width="2" stroke-linecap="round" stroke-linejoin="round"/>
</svg>
