<svg width="26" height="14" viewBox="0 0 26 14" fill="none" xmlns="http://www.w3.org/2000/svg">
<g clip-path="url(#clip0_4_1327)">
<path d="M23.625 12.1622C23.275 11.8122 22.75 10.1497 22.75 6.99966C22.75 3.84966 23.275 2.09966 23.5375 1.83716C23.8875 2.18716 24.325 4.02466 24.325 6.99966C24.4125 10.1497 23.8875 11.8122 23.625 12.1622Z" stroke="white" stroke-opacity="0.8" stroke-width="2" stroke-miterlimit="10" stroke-linecap="round" stroke-linejoin="round"/>
<path d="M17.9368 12.7753C16.3618 12.7753 15.0493 10.1503 15.0493 7.00034C15.0493 4.81284 15.6618 2.80034 16.6243 1.83784C17.0618 1.40034 17.4993 1.22534 17.9368 1.22534C18.6368 1.22534 19.4243 1.83784 19.9493 2.80034C20.5618 3.93784 20.9118 5.42534 20.9118 7.00034C20.9118 10.1503 19.5118 12.7753 17.9368 12.7753Z" stroke="white" stroke-opacity="0.8" stroke-width="2" stroke-miterlimit="10" stroke-linecap="round" stroke-linejoin="round"/>
<path d="M6.9125 13.125C3.5875 13.125 0.875 10.4125 0.875 7C0.875 5.3375 1.4875 3.85 2.625 2.625C3.7625 1.4875 5.3375 0.875 6.9125 0.875C8.575 0.875 10.0625 1.4875 11.2 2.7125C12.3375 3.85 12.95 5.425 12.95 7.0875C13.0375 10.4125 10.2375 13.125 6.9125 13.125Z" stroke="white" stroke-opacity="0.8" stroke-width="2" stroke-miterlimit="10" stroke-linecap="round" stroke-linejoin="round"/>
</g>
<defs>
<clipPath id="clip0_4_1327">
<rect width="25.2875" height="14" fill="white"/>
</clipPath>
</defs>
</svg>
