<svg width="23" height="22" viewBox="0 0 23 22" fill="none" xmlns="http://www.w3.org/2000/svg">
<path d="M11.5945 14.1783C13.3498 14.1783 14.7728 12.7554 14.7728 11C14.7728 9.24466 13.3498 7.82167 11.5945 7.82167C9.8391 7.82167 8.41611 9.24466 8.41611 11C8.41611 12.7554 9.8391 14.1783 11.5945 14.1783Z" stroke="white" stroke-opacity="0.7" stroke-width="1.5" stroke-miterlimit="10" stroke-linecap="round" stroke-linejoin="round"/>
<path d="M1 11.9323V10.0677C1 8.96586 1.90053 8.05474 3.01295 8.05474C4.93054 8.05474 5.71453 6.69865 4.75044 5.03532C4.19953 4.08182 4.52795 2.84227 5.49205 2.29136L7.32489 1.24251C8.16185 0.744569 9.24249 1.04121 9.74042 1.87818L9.85696 2.07947C10.8105 3.7428 12.3784 3.7428 13.3425 2.07947L13.4591 1.87818C13.957 1.04121 15.0377 0.744569 15.8746 1.24251L17.7075 2.29136C18.6715 2.84227 19 4.08182 18.4491 5.03532C17.485 6.69865 18.269 8.05474 20.1866 8.05474C21.2884 8.05474 22.1995 8.95527 22.1995 10.0677V11.9323C22.1995 13.0341 21.299 13.9453 20.1866 13.9453C18.269 13.9453 17.485 15.3013 18.4491 16.9647C19 17.9288 18.6715 19.1577 17.7075 19.7086L15.8746 20.7575C15.0377 21.2554 13.957 20.9588 13.4591 20.1218L13.3425 19.9205C12.389 18.2572 10.8211 18.2572 9.85696 19.9205L9.74042 20.1218C9.24249 20.9588 8.16185 21.2554 7.32489 20.7575L5.49205 19.7086C4.52795 19.1577 4.19953 17.9182 4.75044 16.9647C5.71453 15.3013 4.93054 13.9453 3.01295 13.9453C1.90053 13.9453 1 13.0341 1 11.9323Z" stroke="white" stroke-opacity="0.7" stroke-width="1.5" stroke-miterlimit="10" stroke-linecap="round" stroke-linejoin="round"/>
</svg>
