<svg width="47" height="13" viewBox="0 0 47 13" fill="none" xmlns="http://www.w3.org/2000/svg">
<path d="M40.3929 6.5C40.3929 4.095 39.4271 1.92214 37.8671 0.334286C38.5171 0.120714 39.2043 0 39.9286 0C43.5129 0 46.4286 2.90643 46.4286 6.5C46.4286 10.0843 43.5129 13 39.9286 13C39.2043 13 38.5171 12.8793 37.8671 12.6564C39.4271 11.0686 40.3929 8.89571 40.3929 6.5ZM29.51 12.6564C30.16 12.8793 30.8471 13 31.5714 13C33.1593 13 34.6171 12.4243 35.75 11.4679C37.1707 10.2793 38.0714 8.49643 38.0714 6.5C38.0714 4.50357 37.1707 2.71143 35.75 1.52286C34.6171 0.566429 33.1593 0 31.5714 0C30.8471 0 30.16 0.120714 29.51 0.334286C31.07 1.92214 32.0357 4.095 32.0357 6.5C32.0357 8.89571 31.07 11.0686 29.51 12.6564ZM23.6786 6.5C23.6786 7.48429 23.5114 8.43143 23.2143 9.31357C22.7871 10.5857 22.0721 11.7186 21.1529 12.6564C21.8029 12.8793 22.49 13 23.2143 13C23.9386 13 24.6257 12.8793 25.2757 12.6564C25.675 12.5264 26.0557 12.3593 26.4086 12.155C26.7614 11.96 27.0864 11.7279 27.3929 11.4679C28.8136 10.2793 29.7143 8.49643 29.7143 6.5C29.7143 4.50357 28.8136 2.71143 27.3929 1.52286C27.0864 1.26286 26.7614 1.04 26.4086 0.845C26.0557 0.631429 25.675 0.464286 25.2757 0.334286C24.6257 0.120714 23.9386 0 23.2143 0C22.49 0 21.8029 0.120714 21.1529 0.334286C22.0721 1.27214 22.7871 2.41429 23.2143 3.68643C23.5114 4.56857 23.6786 5.51571 23.6786 6.5ZM15.3214 6.5C15.3214 7.48429 15.1543 8.43143 14.8571 9.31357C14.43 10.5857 13.715 11.7186 12.7957 12.6564C13.4457 12.8793 14.1329 13 14.8571 13C15.5814 13 16.2686 12.8793 16.9186 12.6564C17.3179 12.5264 17.6986 12.3593 18.0514 12.155C18.4043 11.96 18.7293 11.7279 19.0357 11.4679C20.4564 10.2793 21.3571 8.49643 21.3571 6.5C21.3571 4.50357 20.4564 2.71143 19.0357 1.52286C18.7293 1.26286 18.4043 1.04 18.0514 0.845C17.6986 0.631429 17.3179 0.464286 16.9186 0.334286C16.2686 0.120714 15.5814 0 14.8571 0C14.1329 0 13.4457 0.120714 12.7957 0.334286C13.715 1.27214 14.43 2.41429 14.8571 3.68643C15.1543 4.56857 15.3214 5.51571 15.3214 6.5ZM6.5 13C7.22429 13 7.91143 12.8793 8.56143 12.6564C8.96072 12.5264 9.34143 12.3593 9.69429 12.155C10.0471 11.96 10.3721 11.7279 10.6786 11.4679C12.0993 10.2793 13 8.49643 13 6.5C13 4.50357 12.0993 2.71143 10.6786 1.52286C10.3721 1.26286 10.0471 1.04 9.69429 0.845C9.34143 0.631429 8.96072 0.464286 8.56143 0.334286C7.91143 0.120714 7.22429 0 6.5 0C2.90643 0 0 2.90643 0 6.5C0 10.0843 2.90643 13 6.5 13Z" fill="url(#paint0_linear_1_424)" fill-opacity="0.5"/>
<defs>
<linearGradient id="paint0_linear_1_424" x1="46.0351" y1="6.5" x2="-2.69693e-06" y2="6.5" gradientUnits="userSpaceOnUse">
<stop stop-color="#06D0E7"/>
<stop offset="1" stop-color="#06D0E7" stop-opacity="0"/>
</linearGradient>
</defs>
</svg>
