<svg width="47" height="13" viewBox="0 0 47 13" fill="none" xmlns="http://www.w3.org/2000/svg">
<path d="M6.03571 6.5C6.03571 8.905 7.00143 11.0779 8.56143 12.6657C7.91143 12.8793 7.22429 13 6.5 13C2.91571 13 0 10.0936 0 6.5C0 2.91571 2.91571 0 6.5 0C7.22429 0 7.91143 0.120714 8.56143 0.343571C7.00143 1.93143 6.03571 4.10429 6.03571 6.5ZM16.9186 0.343571C16.2686 0.120714 15.5814 0 14.8571 0C13.2693 0 11.8114 0.575714 10.6786 1.53214C9.25786 2.72071 8.35714 4.50357 8.35714 6.5C8.35714 8.49643 9.25786 10.2886 10.6786 11.4771C11.8114 12.4336 13.2693 13 14.8571 13C15.5814 13 16.2686 12.8793 16.9186 12.6657C15.3586 11.0779 14.3929 8.905 14.3929 6.5C14.3929 4.10429 15.3586 1.93143 16.9186 0.343571ZM22.75 6.5C22.75 5.51571 22.9171 4.56857 23.2143 3.68643C23.6414 2.41429 24.3564 1.28143 25.2757 0.343571C24.6257 0.120714 23.9386 0 23.2143 0C22.49 0 21.8029 0.120714 21.1529 0.343571C20.7536 0.473571 20.3729 0.640714 20.02 0.845C19.6671 1.04 19.3421 1.27214 19.0357 1.53214C17.615 2.72071 16.7143 4.50357 16.7143 6.5C16.7143 8.49643 17.615 10.2886 19.0357 11.4771C19.3421 11.7371 19.6671 11.96 20.02 12.155C20.3729 12.3686 20.7536 12.5357 21.1529 12.6657C21.8029 12.8793 22.49 13 23.2143 13C23.9386 13 24.6257 12.8793 25.2757 12.6657C24.3564 11.7279 23.6414 10.5857 23.2143 9.31357C22.9171 8.43143 22.75 7.48429 22.75 6.5ZM31.1071 6.5C31.1071 5.51571 31.2743 4.56857 31.5714 3.68643C31.9986 2.41429 32.7136 1.28143 33.6329 0.343571C32.9829 0.120714 32.2957 0 31.5714 0C30.8471 0 30.16 0.120714 29.51 0.343571C29.1107 0.473571 28.73 0.640714 28.3771 0.845C28.0243 1.04 27.6993 1.27214 27.3929 1.53214C25.9721 2.72071 25.0714 4.50357 25.0714 6.5C25.0714 8.49643 25.9721 10.2886 27.3929 11.4771C27.6993 11.7371 28.0243 11.96 28.3771 12.155C28.73 12.3686 29.1107 12.5357 29.51 12.6657C30.16 12.8793 30.8471 13 31.5714 13C32.2957 13 32.9829 12.8793 33.6329 12.6657C32.7136 11.7279 31.9986 10.5857 31.5714 9.31357C31.2743 8.43143 31.1071 7.48429 31.1071 6.5ZM39.9286 0C39.2043 0 38.5171 0.120714 37.8671 0.343571C37.4679 0.473571 37.0871 0.640714 36.7343 0.845C36.3814 1.04 36.0564 1.27214 35.75 1.53214C34.3293 2.72071 33.4286 4.50357 33.4286 6.5C33.4286 8.49643 34.3293 10.2886 35.75 11.4771C36.0564 11.7371 36.3814 11.96 36.7343 12.155C37.0871 12.3686 37.4679 12.5357 37.8671 12.6657C38.5171 12.8793 39.2043 13 39.9286 13C43.5221 13 46.4286 10.0936 46.4286 6.5C46.4286 2.91571 43.5221 0 39.9286 0Z" fill="url(#paint0_linear_1_423)" fill-opacity="0.5"/>
<defs>
<linearGradient id="paint0_linear_1_423" x1="0.393462" y1="6.5" x2="46.4286" y2="6.5" gradientUnits="userSpaceOnUse">
<stop stop-color="#06D0E7"/>
<stop offset="1" stop-color="#06D0E7" stop-opacity="0"/>
</linearGradient>
</defs>
</svg>
